<svg width="785" height="266" viewBox="0 0 785 266" fill="none" xmlns="http://www.w3.org/2000/svg">
<path d="M40.194 68.524C36.918 68.524 34.146 68.44 31.878 68.272C29.694 68.02 26.796 67.642 23.184 67.138L23.058 80.368C22.974 82.636 22.932 85.87 22.932 90.07C22.932 92.254 22.302 93.976 21.042 95.236C19.866 96.412 18.522 97 17.01 97C14.238 97 12.18 96.664 10.836 95.992C9.492 95.236 8.82 93.934 8.82 92.086C8.82 89.65 9.03 86.206 9.45 81.754C10.374 72.178 10.836 62.35 10.836 52.27C10.836 42.862 10.542 34 9.954 25.684C10.038 24.508 10.626 23.164 11.718 21.652C12.894 20.14 14.364 19.3 16.128 19.132C18.06 19.132 21.126 18.796 25.326 18.124C29.694 17.452 33.012 17.116 35.28 17.116C42.168 17.116 47.502 17.788 51.282 19.132C55.146 20.476 59.01 22.702 62.874 25.81C67.074 32.362 69.174 36.982 69.174 39.67C69.174 45.298 68.04 50.296 65.772 54.664C63.504 59.032 60.186 62.434 55.818 64.87C51.45 67.306 46.242 68.524 40.194 68.524ZM37.296 27.826C34.608 27.826 32.256 27.994 30.24 28.33C28.308 28.582 25.956 29.044 23.184 29.716C23.52 37.444 23.688 43.072 23.688 46.6C23.688 50.212 23.562 53.236 23.31 55.672C26.922 56.428 29.778 56.932 31.878 57.184C33.978 57.352 36.33 57.436 38.934 57.436C45.15 57.436 49.518 55.84 52.038 52.648C54.642 49.372 55.944 45.592 55.944 41.308C55.944 40.048 55.566 38.494 54.81 36.646C54.054 34.798 53.382 33.58 52.794 32.992C50.526 30.976 48.3 29.632 46.116 28.96C44.016 28.204 41.076 27.826 37.296 27.826ZM97.3084 91.96C97.3084 93.388 96.7624 94.648 95.6704 95.74C94.5784 96.832 93.2344 97.378 91.6384 97.378C89.1184 97.378 87.2704 96.916 86.0944 95.992C84.9184 94.984 84.3304 93.178 84.3304 90.574C84.3304 87.466 84.2464 83.392 84.0784 78.352C83.9104 74.152 83.8264 70.624 83.8264 67.768C83.8264 66.424 83.9104 64.66 84.0784 62.476C84.2464 60.46 84.3304 58.948 84.3304 57.94C84.0784 56.344 83.4484 55.042 82.4404 54.034C81.4324 52.942 80.1304 52.396 78.5344 52.396C77.7784 52.396 77.1484 52.06 76.6444 51.388C76.1404 50.632 75.8884 49.876 75.8884 49.12C75.8884 47.188 76.6444 45.718 78.1564 44.71C79.7524 43.702 81.6424 43.198 83.8264 43.198C88.3624 43.198 91.5124 45.886 93.2764 51.262C95.4604 48.742 97.9384 46.726 100.71 45.214C103.566 43.618 106.296 42.82 108.9 42.82C112.008 42.82 114.822 43.66 117.342 45.34C119.946 47.02 121.248 49.288 121.248 52.144C121.248 53.74 120.534 55.378 119.106 57.058C117.762 58.738 116.376 59.578 114.948 59.578C114.192 59.578 113.52 59.41 112.932 59.074C112.428 58.654 111.798 58.066 111.042 57.31C110.202 56.47 109.488 55.882 108.9 55.546C108.312 55.126 107.64 54.916 106.884 54.916C105.54 54.916 104.28 55.126 103.104 55.546C101.928 55.966 101.13 56.47 100.71 57.058C99.3664 59.158 98.3584 61.048 97.6864 62.728C97.0984 64.408 96.8044 66.214 96.8044 68.146C96.8044 69.574 96.7624 70.708 96.6784 71.548L96.5524 78.73C96.5524 79.822 96.5944 81.04 96.6784 82.384C96.7624 83.728 96.8464 84.736 96.9304 85.408C97.1824 87.676 97.3084 89.86 97.3084 91.96ZM178.637 56.554C179.309 57.73 179.855 59.452 180.275 61.72C180.695 63.904 180.905 65.878 180.905 67.642C180.905 70.918 180.191 75.58 178.763 81.628C172.967 92.212 164.399 97.504 153.059 97.504C148.859 97.504 144.575 96.118 140.207 93.346C135.839 90.574 132.815 87.382 131.135 83.77C128.867 76.546 127.733 71.968 127.733 70.036C127.733 66.676 128.447 63.106 129.875 59.326C131.387 55.546 133.277 52.27 135.545 49.498C136.973 47.566 139.535 45.928 143.231 44.584C146.927 43.156 150.287 42.442 153.311 42.442C159.191 42.442 164.189 43.576 168.305 45.844C172.421 48.028 175.865 51.598 178.637 56.554ZM167.675 76.84C168.095 75.748 168.305 72.934 168.305 68.398C168.305 65.962 167.843 63.568 166.919 61.216C166.079 58.864 164.819 56.848 163.139 55.168C162.971 55 162.509 54.748 161.753 54.412C160.997 53.992 159.947 53.614 158.603 53.278C157.343 52.858 155.873 52.648 154.193 52.648C149.489 52.648 146.045 54.538 143.861 58.318C141.677 62.098 140.584 66.382 140.584 71.17C140.584 72.01 140.795 73.606 141.215 75.958C141.719 78.31 142.139 79.78 142.475 80.368C142.727 80.956 143.357 81.796 144.365 82.888C145.457 83.896 146.759 84.82 148.271 85.66C149.867 86.416 151.505 86.794 153.185 86.794C156.965 86.794 159.989 85.912 162.257 84.148C164.525 82.3 166.331 79.864 167.675 76.84ZM193.217 53.152C192.041 52.984 191.075 52.522 190.319 51.766C189.647 50.926 189.311 49.918 189.311 48.742C189.311 47.23 189.899 45.97 191.075 44.962C191.327 44.71 191.747 44.5 192.335 44.332C192.923 44.08 193.385 43.87 193.721 43.702C195.569 43.114 196.745 42.652 197.249 42.316C199.181 41.14 200.483 39.208 201.155 36.52C201.827 33.328 202.247 31.144 202.415 29.968C202.583 28.12 203.171 26.734 204.179 25.81C205.271 24.802 206.615 24.298 208.211 24.298C210.311 24.298 211.781 24.844 212.621 25.936C213.461 27.028 213.881 29.044 213.881 31.984C213.881 35.848 212.957 39.502 211.109 42.946C212.285 42.946 214.217 42.862 216.905 42.694C220.937 42.526 223.751 42.442 225.347 42.442C226.775 42.442 227.993 42.82 229.001 43.576C230.093 44.248 230.639 45.256 230.639 46.6C230.639 49.792 229.169 51.682 226.229 52.27C223.541 53.026 218.669 53.488 211.613 53.656C211.025 61.888 210.731 68.398 210.731 73.186C210.731 76.126 210.857 78.226 211.109 79.486C211.613 82.09 212.453 84.022 213.629 85.282C214.889 86.458 216.737 87.046 219.173 87.046C220.349 87.046 222.113 86.752 224.465 86.164C225.893 85.744 227.027 85.534 227.867 85.534C228.959 85.534 229.799 85.912 230.387 86.668C230.975 87.424 231.269 88.432 231.269 89.692C231.269 91.96 229.799 93.85 226.859 95.362C223.919 96.79 220.433 97.504 216.401 97.504C213.881 97.504 211.403 96.916 208.967 95.74C206.531 94.48 204.473 92.968 202.793 91.204C202.457 91.036 201.953 90.112 201.281 88.432C200.693 86.752 200.105 84.904 199.517 82.888C199.265 81.88 199.139 79.444 199.139 75.58C199.139 71.884 199.391 65.5 199.895 56.428L200.021 53.656C199.433 53.656 198.341 53.614 196.745 53.53C195.149 53.362 193.973 53.236 193.217 53.152ZM239.084 68.146C239.084 63.022 240.218 58.78 242.486 55.42C244.754 51.976 247.904 48.742 251.936 45.718C253.112 44.878 255.086 44.164 257.858 43.576C260.63 42.904 263.066 42.568 265.166 42.568C267.686 42.568 270.332 43.114 273.104 44.206C275.96 45.214 278.27 46.39 280.034 47.734C283.142 50.002 285.284 52.648 286.46 55.672C287.636 58.612 288.224 62.14 288.224 66.256C288.224 68.02 287.216 69.742 285.2 71.422C283.268 73.018 281.168 73.816 278.9 73.816L274.112 73.69C271.676 73.69 268.19 73.774 263.654 73.942L261.008 74.068C259.16 74.236 257.774 74.32 256.85 74.32C255.506 74.32 253.658 74.152 251.306 73.816C251.642 77.764 253.112 80.872 255.716 83.14C258.32 85.324 261.134 86.416 264.158 86.416C269.45 86.416 273.146 85.366 275.246 83.266C277.01 82.006 278.186 81.208 278.774 80.872C279.362 80.536 280.286 80.368 281.546 80.368C282.89 80.368 284.066 80.998 285.074 82.258C286.082 83.518 286.586 84.778 286.586 86.038C286.586 87.466 285.704 88.936 283.94 90.448C282.26 91.876 279.95 93.388 277.01 94.984C275.414 95.656 273.23 96.244 270.458 96.748C267.686 97.252 265.376 97.504 263.528 97.504C260.588 97.504 257.312 96.664 253.7 94.984C250.088 93.22 247.4 91.288 245.636 89.188C243.872 87.088 242.318 84.106 240.974 80.242C239.714 76.378 239.084 72.346 239.084 68.146ZM264.158 64.744C270.122 64.744 274.49 64.534 277.262 64.114C277.094 61.678 276.338 59.704 274.994 58.192C273.65 56.596 271.802 55.252 269.45 54.16C268.694 53.824 268.022 53.572 267.434 53.404C266.846 53.236 266.174 53.152 265.418 53.152C261.554 53.152 258.278 54.202 255.59 56.302C252.986 58.402 251.432 61.09 250.928 64.366C255.128 64.618 259.538 64.744 264.158 64.744ZM300.397 53.404C299.221 53.236 298.255 52.732 297.499 51.892C296.827 51.052 296.491 50.044 296.491 48.868C296.491 48.28 296.617 47.65 296.869 46.978C297.205 46.306 297.667 45.718 298.255 45.214C299.347 44.29 300.817 43.408 302.665 42.568C304.597 41.812 305.983 40.888 306.823 39.796C307.663 38.704 308.083 36.646 308.083 33.622C308.083 32.362 307.999 31.27 307.831 30.346C307.747 29.422 307.705 28.708 307.705 28.204C307.705 26.356 308.377 24.97 309.721 24.046C311.065 23.122 312.619 22.66 314.383 22.66C316.567 22.66 318.037 23.206 318.793 24.298C319.633 25.39 320.053 27.406 320.053 30.346C320.053 33.202 319.927 35.68 319.675 37.78C319.423 39.796 318.877 41.602 318.037 43.198C319.213 43.198 321.145 43.114 323.833 42.946C327.529 42.778 330.091 42.694 331.519 42.694C332.947 42.694 334.207 43.072 335.299 43.828C336.391 44.5 336.937 45.466 336.937 46.726C336.937 48.49 336.559 49.792 335.803 50.632C335.047 51.472 333.955 52.018 332.527 52.27C329.083 53.194 324.211 53.74 317.911 53.908C317.743 57.184 317.659 60.754 317.659 64.618C317.659 71.086 318.037 76.042 318.793 79.486C319.297 82.174 320.137 84.148 321.313 85.408C322.573 86.584 324.421 87.172 326.857 87.172C328.117 87.172 329.125 87.004 329.881 86.668C330.721 86.332 331.183 86.122 331.267 86.038C332.275 85.45 333.199 85.156 334.039 85.156C335.215 85.156 336.055 85.534 336.559 86.29C337.147 87.046 337.441 88.054 337.441 89.314C337.441 91.666 336.181 93.64 333.661 95.236C331.141 96.748 327.907 97.504 323.959 97.504C319.507 97.504 315.727 96.202 312.619 93.598C309.595 90.91 307.789 87.382 307.201 83.014C306.361 79.066 305.941 73.522 305.941 66.382C305.941 63.274 306.109 59.116 306.445 53.908L300.397 53.404ZM397.162 56.554C397.834 57.73 398.38 59.452 398.8 61.72C399.22 63.904 399.43 65.878 399.43 67.642C399.43 69.994 399.052 72.934 398.296 76.462C397.54 79.906 396.91 82.216 396.406 83.392C391.87 92.8 383.134 97.504 370.198 97.504C366.082 97.504 362.05 96.16 358.102 93.472C354.154 90.7 351.34 87.466 349.66 83.77L348.778 81.25C348.694 80.914 348.232 79.654 347.392 77.47C346.636 75.202 346.258 73.48 346.258 72.304C346.258 68.86 347.098 64.87 348.778 60.334C350.458 55.798 352.39 52.186 354.574 49.498C356.002 47.566 358.732 45.928 362.764 44.584C366.796 43.156 370.366 42.442 373.474 42.442C379.27 42.442 383.932 43.534 387.46 45.718C391.072 47.902 394.306 51.514 397.162 56.554ZM385.57 76.84C385.906 76.252 386.2 75.202 386.452 73.69C386.704 72.178 386.83 70.414 386.83 68.398C386.83 65.962 386.368 63.568 385.444 61.216C384.604 58.864 383.344 56.848 381.664 55.168C381.58 55 381.286 54.748 380.782 54.412C380.278 53.992 379.48 53.614 378.388 53.278C377.296 52.858 375.91 52.648 374.23 52.648C370.954 52.648 368.182 53.614 365.914 55.546C363.646 57.478 361.924 59.872 360.748 62.728C359.656 65.584 359.11 68.398 359.11 71.17C359.11 71.926 359.362 73.48 359.866 75.832C360.37 78.184 360.748 79.696 361 80.368C361.672 81.544 362.974 82.93 364.906 84.526C366.838 86.038 369.022 86.794 371.458 86.794C375.238 86.794 378.178 85.912 380.278 84.148C382.462 82.384 384.226 79.948 385.57 76.84ZM430.15 91.96C430.15 93.388 429.604 94.648 428.512 95.74C427.42 96.832 426.076 97.378 424.48 97.378C421.96 97.378 420.112 96.916 418.936 95.992C417.76 94.984 417.172 93.178 417.172 90.574C417.172 87.466 417.088 83.392 416.92 78.352C416.752 74.152 416.668 70.624 416.668 67.768C416.668 66.424 416.752 64.66 416.92 62.476C417.088 60.46 417.172 58.948 417.172 57.94C416.92 56.344 416.29 55.042 415.282 54.034C414.274 52.942 412.972 52.396 411.376 52.396C410.62 52.396 409.99 52.06 409.486 51.388C408.982 50.632 408.73 49.876 408.73 49.12C408.73 47.188 409.486 45.718 410.998 44.71C412.594 43.702 414.484 43.198 416.668 43.198C421.204 43.198 424.354 45.886 426.118 51.262C428.302 48.742 430.78 46.726 433.552 45.214C436.408 43.618 439.138 42.82 441.742 42.82C444.85 42.82 447.664 43.66 450.184 45.34C452.788 47.02 454.09 49.288 454.09 52.144C454.09 53.74 453.376 55.378 451.948 57.058C450.604 58.738 449.218 59.578 447.79 59.578C447.034 59.578 446.362 59.41 445.774 59.074C445.27 58.654 444.64 58.066 443.884 57.31C443.044 56.47 442.33 55.882 441.742 55.546C441.154 55.126 440.482 54.916 439.726 54.916C438.382 54.916 437.122 55.126 435.946 55.546C434.77 55.966 433.972 56.47 433.552 57.058C432.208 59.158 431.2 61.048 430.528 62.728C429.94 64.408 429.646 66.214 429.646 68.146C429.646 69.574 429.604 70.708 429.52 71.548L429.394 78.73C429.394 79.822 429.436 81.04 429.52 82.384C429.604 83.728 429.688 84.736 429.772 85.408C430.024 87.676 430.15 89.86 430.15 91.96ZM518.912 90.952C518.912 92.8 517.904 94.354 515.888 95.614C513.956 96.874 512.15 97.504 510.47 97.504C507.278 97.504 504.716 97.126 502.784 96.37C500.936 95.53 499.214 94.018 497.618 91.834C495.434 93.766 492.452 95.236 488.672 96.244C484.892 97.168 481.406 97.63 478.214 97.63C473.006 97.63 468.722 96.244 465.362 93.472C462.002 90.616 460.322 86.458 460.322 80.998C460.322 78.646 460.952 76.504 462.212 74.572C463.472 72.556 465.194 70.792 467.378 69.28C469.814 67.684 472.586 66.466 475.694 65.626C478.802 64.702 482.036 64.24 485.396 64.24C487.16 64.24 489.26 64.576 491.696 65.248C494.132 65.92 496.022 66.634 497.366 67.39V65.374C497.366 60.838 496.274 57.73 494.09 56.05C491.906 54.286 488.378 53.404 483.506 53.404C482.078 53.404 480.65 53.698 479.222 54.286C477.878 54.874 476.324 55.672 474.56 56.68C472.208 57.94 469.982 58.57 467.882 58.57C467.126 58.57 466.412 58.066 465.74 57.058C465.068 55.966 464.732 55 464.732 54.16C464.732 51.724 465.866 49.624 468.134 47.86C470.486 46.096 473.258 44.794 476.45 43.954C479.642 43.03 482.498 42.568 485.018 42.568C487.538 42.568 490.436 43.072 493.712 44.08C496.988 45.004 499.676 46.306 501.776 47.986C504.296 50.17 506.228 52.732 507.572 55.672C509 58.528 509.714 61.678 509.714 65.122C509.714 66.214 509.63 67.852 509.462 70.036C509.294 72.388 509.21 74.404 509.21 76.084C509.21 76.84 509.126 77.974 508.958 79.486C508.79 81.334 508.706 82.804 508.706 83.896C508.706 84.904 509.084 85.786 509.84 86.542C510.596 87.214 511.478 87.55 512.486 87.55L516.014 87.424C516.938 87.424 517.652 87.76 518.156 88.432C518.66 89.104 518.912 89.944 518.912 90.952ZM478.34 87.676C481.952 87.676 484.976 87.298 487.412 86.542C489.848 85.786 492.788 84.4 496.232 82.384C496.568 80.956 496.778 79.066 496.862 76.714C492.242 74.53 488.42 73.438 485.396 73.438C481.952 73.438 478.886 74.068 476.198 75.328C473.51 76.588 472.166 78.814 472.166 82.006C472.166 83.602 472.838 84.946 474.182 86.038C475.526 87.13 476.912 87.676 478.34 87.676ZM562.569 69.784C563.241 70.204 564.543 71.002 566.475 72.178C568.491 73.27 569.835 74.572 570.507 76.084C571.179 77.596 571.515 79.696 571.515 82.384C571.515 85.408 570.633 88.096 568.869 90.448C567.105 92.716 564.837 94.48 562.065 95.74C560.133 96.58 558.033 97.084 555.765 97.252C553.581 97.42 550.935 97.504 547.827 97.504C546.147 97.504 543.963 97.252 541.275 96.748C538.671 96.244 536.865 95.782 535.857 95.362C533.169 93.85 530.901 92.086 529.053 90.07C527.205 88.054 526.281 85.996 526.281 83.896C526.281 82.216 526.827 80.872 527.919 79.864C529.011 78.856 530.439 78.352 532.203 78.352C533.127 78.352 534.009 78.604 534.849 79.108C535.773 79.528 536.403 80.032 536.739 80.62C537.663 82.804 539.217 84.442 541.401 85.534C543.585 86.626 545.811 87.172 548.079 87.172C556.059 87.172 560.049 85.744 560.049 82.888C560.049 82.132 559.839 81.544 559.419 81.124C559.083 80.62 558.579 80.116 557.907 79.612C556.815 78.856 555.261 78.058 553.245 77.218C551.313 76.378 549.591 75.748 548.079 75.328C544.635 74.572 541.275 73.438 537.999 71.926C534.975 70.414 532.497 68.44 530.565 66.004C528.633 63.484 527.667 60.418 527.667 56.806C527.667 54.622 528.465 52.48 530.061 50.38C531.741 48.196 533.673 46.558 535.857 45.466C537.369 44.878 539.847 44.248 543.291 43.576C546.735 42.904 549.087 42.568 550.347 42.568C552.279 42.568 554.379 42.778 556.647 43.198C558.915 43.534 560.637 44.122 561.813 44.962C564.081 46.306 565.929 47.734 567.357 49.246C568.785 50.674 569.499 52.312 569.499 54.16C569.499 55.084 569.289 56.092 568.869 57.184C568.449 58.192 567.945 58.822 567.357 59.074C566.097 59.662 564.627 59.956 562.947 59.956C562.191 59.956 561.561 59.746 561.057 59.326C560.637 58.906 560.049 58.234 559.293 57.31C558.369 55.882 557.487 55.042 556.647 54.79C555.639 54.538 554.169 54.244 552.237 53.908C550.305 53.488 549.003 53.278 548.331 53.278C546.231 53.278 544.215 53.698 542.283 54.538C540.435 55.378 539.511 56.512 539.511 57.94C539.511 59.62 540.897 61.048 543.669 62.224C545.433 63.064 547.365 63.778 549.465 64.366C551.649 64.954 552.993 65.332 553.497 65.5C554.673 65.752 556.185 66.34 558.033 67.264C559.965 68.188 561.477 69.028 562.569 69.784ZM7.02 183.928C7.02 179.976 7.748 176.024 9.204 172.072C10.66 168.016 12.584 164.324 14.976 160.996C17.368 157.668 21.164 154.964 26.364 152.884C31.564 150.7 36.192 149.608 40.248 149.608C44.408 149.608 48.62 150.18 52.884 151.324C57.252 152.468 60.268 154.236 61.932 156.628C65.78 162.036 67.704 167.34 67.704 172.54C67.704 175.348 67.08 177.74 65.832 179.716C64.688 181.692 63.024 183.824 60.84 186.112C59.072 187.984 56.264 189.232 52.416 189.856C48.672 190.48 44.928 190.792 41.184 190.792C38.792 190.792 35.88 190.584 32.448 190.168C29.016 189.648 25.688 189.024 22.464 188.296C22.672 190.376 23.192 192.404 24.024 194.38C24.856 196.356 25.844 197.864 26.988 198.904C29.068 200.88 31.2 202.128 33.384 202.648C35.672 203.168 38.584 203.428 42.12 203.428C45.864 203.428 49.348 202.804 52.572 201.556C55.172 200.62 57.304 200.152 58.968 200.152C60.944 200.152 62.452 200.776 63.492 202.024C64.532 203.168 65.052 204.676 65.052 206.548C65.052 209.148 63.544 211.28 60.528 212.944C57.512 214.608 54.028 215.856 50.076 216.688C46.228 217.416 43.108 217.78 40.716 217.78C35.828 217.78 31.096 216.896 26.52 215.128C21.944 213.36 18.148 210.864 15.132 207.64C12.636 204.728 10.66 201.244 9.204 197.188C7.748 193.028 7.02 188.608 7.02 183.928ZM41.028 162.868C38.74 162.868 36.452 163.336 34.164 164.272C31.876 165.104 30.004 166.3 28.548 167.86C26.676 169.836 25.376 171.448 24.648 172.696C24.024 173.84 23.608 175.452 23.4 177.532C26 178.364 31.408 178.78 39.624 178.78C44.096 178.78 47.528 178.104 49.92 176.752C52.416 175.4 53.664 173.632 53.664 171.448C53.664 169.264 52.312 167.288 49.608 165.52C46.904 163.752 44.044 162.868 41.028 162.868ZM181.048 211.54C179.488 208.628 178.5 205.404 178.084 201.868C177.668 198.228 177.46 193.236 177.46 186.892C177.46 180.86 176.628 175.608 174.964 171.136C173.3 166.664 169.868 164.428 164.668 164.428C162.692 164.428 160.716 165.052 158.74 166.3C156.868 167.444 155.464 168.9 154.528 170.668C153.072 173.476 152.084 176.544 151.564 179.872C151.044 183.096 150.784 186.84 150.784 191.104C150.784 193.808 150.94 196.564 151.252 199.372C151.252 200.204 151.304 201.556 151.408 203.428C151.616 205.196 151.72 206.808 151.72 208.264C151.72 214.504 149.536 217.624 145.168 217.624C139.448 217.624 136.432 214.608 136.12 208.576C136.12 204.312 136.172 202.024 136.276 201.712V195.004C136.276 191.26 136.12 187.62 135.808 184.084C135.496 180.548 135.132 177.896 134.716 176.128C133.78 172.696 132.532 170.044 130.972 168.172C129.516 166.3 127.176 165.364 123.952 165.364C119.376 165.364 115.684 167.34 112.876 171.292C110.9 174.412 109.6 178.208 108.976 182.68C108.352 188.4 107.884 192.924 107.572 196.252C107.364 199.476 107.26 203.22 107.26 207.484C107.26 210.5 106.74 212.944 105.7 214.816C104.764 216.688 102.944 217.624 100.24 217.624C98.2638 217.624 96.1838 217.104 93.9998 216.064C91.9198 214.92 90.8798 213.412 90.8798 211.54C90.8798 209.564 91.0878 207.588 91.5038 205.612C92.4398 199.684 92.9078 189.076 92.9078 173.788C92.9078 171.292 92.2838 168.9 91.0358 166.612C89.8918 164.22 88.4878 163.024 86.8238 163.024C86.4078 163.024 85.6278 163.232 84.4838 163.648C83.4438 164.064 82.6638 164.272 82.1438 164.272C80.7918 164.272 79.5438 163.648 78.3998 162.4C77.3598 161.152 76.8398 160.112 76.8398 159.28C76.8398 156.68 78.0878 154.496 80.5838 152.728C83.1838 150.856 85.8878 149.92 88.6958 149.92C92.5438 149.92 95.8198 151.116 98.5238 153.508C101.228 155.9 103.308 159.228 104.764 163.492C107.156 159.332 110.38 156.004 114.436 153.508C118.492 150.908 123.016 149.608 128.008 149.608C131.128 149.608 133.624 150.024 135.496 150.856C137.472 151.584 139.084 152.676 140.332 154.132C141.58 155.484 143.192 157.564 145.168 160.372C147.768 157.044 151.096 154.444 155.152 152.572C159.312 150.7 163.576 149.764 167.944 149.764C173.144 149.764 177.824 151.896 181.984 156.16C186.144 160.32 188.952 165.156 190.408 170.668C191.136 173.476 191.5 178.884 191.5 186.892L192.124 195.94C192.644 201.348 194.412 204.624 197.428 205.768C200.964 206.808 202.732 207.9 202.732 209.044C202.732 211.54 202.108 213.36 200.86 214.504C199.924 215.128 198.624 215.804 196.96 216.532C195.296 217.26 193.996 217.624 193.06 217.624C187.444 217.624 183.44 215.596 181.048 211.54ZM308.099 217.624C304.563 217.624 301.859 217.104 299.987 216.064C298.115 214.92 296.087 212.84 293.903 209.824C291.199 212.216 287.143 214.14 281.735 215.596C276.431 217.052 271.855 217.78 268.007 217.78C261.663 217.78 256.515 216.064 252.563 212.632C248.715 209.096 246.791 203.948 246.791 197.188C246.791 194.276 247.571 191.624 249.131 189.232C250.795 186.736 252.927 184.552 255.527 182.68C258.439 180.704 261.871 179.144 265.823 178C269.879 176.856 273.571 176.284 276.899 176.284C282.515 176.284 287.507 176.804 291.875 177.844V177.688C291.875 172.072 290.471 168.224 287.663 166.144C284.959 163.96 280.591 162.868 274.559 162.868C270.711 162.868 267.383 164.584 264.575 168.016C263.535 169.368 261.351 170.044 258.023 170.044C256.359 170.044 255.111 169.368 254.279 168.016C253.551 166.56 253.187 165.104 253.187 163.648C253.187 160.632 254.435 158.032 256.931 155.848C259.531 153.664 262.651 152.052 266.291 151.012C269.931 149.868 273.311 149.296 276.431 149.296C279.447 149.296 283.035 149.92 287.195 151.168C291.355 152.416 294.735 154.08 297.335 156.16C300.455 158.864 302.847 162.036 304.511 165.676C306.279 169.212 307.163 173.112 307.163 177.376C307.163 178.728 307.059 180.756 306.851 183.46C306.643 186.58 306.539 189.128 306.539 191.104C306.539 192.04 306.435 193.236 306.227 194.692C306.019 196.564 305.915 198.124 305.915 199.372C305.915 200.724 306.331 202.024 307.163 203.272C307.995 204.52 309.139 205.56 310.595 206.392C311.947 207.12 312.831 207.9 313.247 208.732C313.663 209.564 313.871 210.5 313.871 211.54C313.871 212.58 313.195 213.88 311.843 215.44C310.595 216.896 309.347 217.624 308.099 217.624ZM276.899 187.828C272.843 187.828 269.255 188.608 266.135 190.168C263.015 191.728 261.455 194.484 261.455 198.436C261.455 200.412 262.131 202.076 263.483 203.428C264.939 204.78 266.499 205.456 268.163 205.456C272.635 205.456 276.379 204.988 279.395 204.052C282.411 203.116 286.051 201.4 290.315 198.904C290.835 197.24 291.147 194.9 291.251 191.884C291.251 190.74 291.303 189.856 291.407 189.232C285.791 188.296 280.955 187.828 276.899 187.828ZM345.412 228.544C345.412 227.608 345.724 226.672 346.348 225.736C347.076 224.8 348.012 223.708 349.156 222.46C351.028 220.172 352.588 218.456 353.836 217.312C348.324 216.688 343.28 214.972 338.704 212.164C334.232 209.252 330.644 205.456 327.94 200.776C325.34 196.096 324.04 190.844 324.04 185.02C324.04 178.364 325.548 172.28 328.564 166.768C331.58 161.256 335.636 156.94 340.732 153.82C345.828 150.7 351.392 149.14 357.424 149.14C360.856 149.14 364.392 149.764 368.032 151.012C371.672 152.26 374.74 154.08 377.236 156.472C379.732 158.864 380.98 161.672 380.98 164.896C380.98 169.472 378.64 171.76 373.96 171.76C372.4 171.76 371.1 171.396 370.06 170.668C369.02 169.94 367.876 168.848 366.628 167.392C363.508 163.96 360.804 162.244 358.516 162.244C355.5 162.244 352.536 163.128 349.624 164.896C346.816 166.664 344.528 169.16 342.76 172.384C340.992 175.608 340.108 179.196 340.108 183.148C340.108 187.516 340.94 191.156 342.604 194.068C344.372 196.98 347.076 199.476 350.716 201.556C352.068 202.284 353.628 202.856 355.396 203.272C357.268 203.688 358.88 203.896 360.232 203.896C363.248 203.896 367.044 202.7 371.62 200.308C373.284 199.476 374.688 198.852 375.832 198.436C376.976 198.02 378.172 197.812 379.42 197.812C380.564 197.812 381.864 198.332 383.32 199.372C384.776 200.412 385.504 201.712 385.504 203.272C385.504 206.808 383.528 209.772 379.576 212.164C375.624 214.452 370.892 216.064 365.38 217C365.068 217.624 363.976 219.08 362.104 221.368C360.024 224.176 358.88 225.736 358.672 226.048C362.936 226.464 366.316 227.66 368.812 229.636C371.412 231.716 372.712 234.628 372.712 238.372C372.712 241.7 370.528 245.08 366.16 248.512C364.704 249.552 362.624 250.384 359.92 251.008C357.32 251.736 354.304 252.1 350.872 252.1C348.376 252.1 346.192 251.424 344.32 250.072C342.552 248.824 341.668 247.16 341.668 245.08C341.668 244.248 342.032 243.52 342.76 242.896C343.592 242.272 344.424 241.96 345.256 241.96C346.296 241.96 347.336 242.272 348.376 242.896C349.416 243.52 350.352 243.832 351.184 243.832C352.432 243.832 353.784 243.676 355.24 243.364C356.8 243.052 357.996 242.688 358.828 242.272C359.556 241.856 360.18 241.18 360.7 240.244C361.22 239.412 361.48 238.476 361.48 237.436C361.48 235.356 360.128 234.056 357.424 233.536C354.824 233.016 352.016 232.756 349 232.756C348.168 232.756 347.336 232.236 346.504 231.196C345.776 230.26 345.412 229.376 345.412 228.544ZM406.681 129.484C404.809 131.564 403.873 133.904 403.873 136.504C403.873 137.856 404.445 138.948 405.589 139.78C406.733 140.612 407.825 141.028 408.865 141.028C411.465 141.028 413.597 139.832 415.261 137.44C416.925 134.944 419.317 133.696 422.437 133.696C423.373 133.696 424.205 133.904 424.933 134.32C425.765 134.736 426.805 135.412 428.053 136.348C430.029 137.804 431.849 138.896 433.513 139.624C435.177 140.352 437.361 140.716 440.065 140.716C442.457 140.716 444.797 140.092 447.085 138.844C449.477 137.492 451.401 135.828 452.857 133.852C454.417 131.772 455.197 129.692 455.197 127.612C455.197 126.052 454.625 124.908 453.481 124.18C452.441 123.348 451.245 122.932 449.893 122.932C448.749 122.932 447.813 123.192 447.085 123.712C446.357 124.128 445.681 124.804 445.057 125.74C444.953 125.948 444.693 126.364 444.277 126.988C443.965 127.612 443.497 128.184 442.873 128.704C442.249 129.224 441.417 129.484 440.377 129.484C438.505 129.588 436.113 128.6 433.201 126.52C429.561 124.024 425.765 122.776 421.813 122.776C419.213 122.776 416.509 123.4 413.701 124.648C410.893 125.792 408.553 127.404 406.681 129.484ZM468.769 206.392C469.393 207.224 469.705 208.264 469.705 209.512C469.705 211.8 468.457 213.724 465.961 215.284C463.569 216.844 461.333 217.624 459.253 217.624C455.301 217.624 452.129 217.156 449.737 216.22C447.449 215.18 445.317 213.308 443.341 210.604C440.637 212.996 436.945 214.816 432.265 216.064C427.585 217.208 423.269 217.78 419.317 217.78C412.869 217.78 407.565 216.064 403.405 212.632C399.245 209.096 397.165 203.948 397.165 197.188C397.165 194.276 397.945 191.624 399.505 189.232C401.065 186.736 403.197 184.552 405.901 182.68C408.917 180.704 412.349 179.196 416.197 178.156C420.045 177.012 424.049 176.44 428.209 176.44C430.393 176.44 432.993 176.856 436.009 177.688C439.025 178.52 441.365 179.404 443.029 180.34V177.844C443.029 172.228 441.677 168.38 438.973 166.3C436.269 164.116 431.901 163.024 425.869 163.024C424.101 163.024 422.333 163.388 420.565 164.116C418.901 164.844 416.977 165.832 414.793 167.08C411.881 168.64 409.125 169.42 406.525 169.42C405.589 169.42 404.705 168.796 403.873 167.548C403.041 166.196 402.625 165 402.625 163.96C402.625 160.944 404.029 158.344 406.837 156.16C409.749 153.976 413.181 152.364 417.133 151.324C421.085 150.18 424.621 149.608 427.741 149.608C430.861 149.608 434.449 150.232 438.505 151.48C442.561 152.624 445.889 154.236 448.489 156.316C451.609 159.02 454.001 162.192 455.665 165.832C457.433 169.368 458.317 173.268 458.317 177.532C458.317 178.884 458.213 180.912 458.005 183.616C457.797 186.528 457.693 189.024 457.693 191.104C457.693 192.04 457.589 193.444 457.381 195.316C457.173 197.604 457.069 199.424 457.069 200.776C457.069 202.024 457.537 203.116 458.473 204.052C459.409 204.884 460.501 205.3 461.749 205.3L466.117 205.144C467.261 205.144 468.145 205.56 468.769 206.392ZM414.325 203.428C415.989 204.78 417.705 205.456 419.473 205.456C423.945 205.456 427.689 204.988 430.705 204.052C433.721 203.116 437.361 201.4 441.625 198.904C442.041 197.136 442.301 194.796 442.405 191.884C436.685 189.18 431.953 187.828 428.209 187.828C423.945 187.828 420.149 188.608 416.821 190.168C413.493 191.728 411.829 194.484 411.829 198.436C411.829 200.412 412.661 202.076 414.325 203.428Z" fill="#EF5484"/>
<path d="M525.651 196.997L538.826 189.544C541.973 187.764 544.594 185.186 546.427 182.069L547.24 180.686C549.606 176.661 550.198 171.836 548.874 167.359V167.359C547.549 162.875 544.421 159.143 540.239 157.053L539.622 156.745C535.067 154.47 529.775 154.178 524.998 155.938L516.476 159.078L510.279 151.435C507.156 147.582 502.616 145.147 497.679 144.675L496.554 144.568C492.046 144.137 487.567 145.643 484.235 148.71V148.71C480.799 151.872 478.921 156.382 479.097 161.048L479.183 163.325C479.309 166.661 480.232 169.918 481.876 172.824L500.506 205.754C501.457 207.435 503.584 208.039 505.277 207.109L511.529 203.674" stroke="#EE5483" stroke-width="10" stroke-linecap="round"/>
<path d="M605.073 44.5714L605.213 46.0635C605.308 47.0713 605.497 48.068 605.777 49.0405L610.212 64.409L614.961 77.3325C615.465 78.703 617.22 79.0894 618.252 78.0571L623.023 73.288C623.744 72.5679 624.684 72.1084 625.694 71.9821L626.239 71.914C626.559 71.874 626.884 71.9062 627.19 72.0082C628.072 72.3022 628.668 73.1281 628.668 74.0583V74.7458C628.668 75.186 628.574 75.6212 628.394 76.0226L618.63 97.7463L616.768 101.663C611.835 112.035 609.687 123.513 610.536 134.968L616.115 167.5C616.257 168.326 615.753 169.127 614.947 169.357C614.417 169.509 613.846 169.384 613.427 169.025L610.206 166.266C609.779 165.9 609.321 165.572 608.836 165.287L605.036 163.053C604.397 162.677 603.669 162.479 602.928 162.479C601.984 162.479 601.068 162.8 600.331 163.39L599.093 164.38C598.521 164.837 598.01 165.365 597.571 165.95L597.094 166.586C595.921 168.148 595.067 169.926 594.579 171.817L593.67 175.335C593.044 177.761 592.694 180.25 592.626 182.755L592.597 183.834C592.469 188.553 593.123 193.261 594.531 197.766L595.642 201.319L600.499 211.676L606.327 222.033L611.816 230.698C612.249 231.38 612.479 232.172 612.479 232.98V233.76C612.479 235.685 610.918 237.245 608.993 237.245C608.727 237.245 608.463 237.215 608.204 237.155L601.632 235.627C597.006 234.552 592.273 234.009 587.524 234.009H587.025C583.279 234.009 579.539 234.325 575.845 234.953L572.067 235.596C568.148 236.263 564.179 236.598 560.204 236.598H549.891C545.696 236.598 541.56 237.574 537.808 239.449L535.345 240.68C534.749 240.978 534.198 241.357 533.706 241.806L528.143 246.883C527.444 247.521 527.173 248.502 527.445 249.409C527.757 250.45 528.716 251.163 529.803 251.163H531.209L567.797 245.984H575.047C579.249 245.984 583.421 246.695 587.385 248.088L587.74 248.212C591.47 249.523 595.395 250.192 599.349 250.192C603.113 250.192 606.852 249.585 610.423 248.395L620.351 245.087C623.71 243.968 627.242 243.46 630.78 243.586C633.248 243.674 635.694 244.07 638.064 244.765L651.144 248.6C656.209 250.085 661.459 250.839 666.736 250.839C670.059 250.839 673.376 250.54 676.645 249.946L684.38 248.54C685.161 248.398 685.569 247.528 685.178 246.837C682.908 242.822 680.963 238.633 679.361 234.308L678.53 232.067L675.512 221.077C674.507 217.415 673.997 213.635 673.997 209.838C673.997 206.543 674.381 203.259 675.141 200.053L676.911 192.58L681.37 181.119C681.419 180.993 681.44 180.858 681.431 180.723L681.01 174.131C680.656 168.585 681.489 163.026 683.454 157.827L685.168 153.293C685.703 151.877 685.977 150.375 685.977 148.861C685.977 146.96 685.545 145.084 684.713 143.375L681.268 136.295C680.528 134.774 680.057 133.137 679.877 131.455C679.413 127.132 679.595 122.764 680.417 118.494L680.717 116.934C680.769 116.663 680.743 116.382 680.641 116.126L677.472 108.104L675.46 101.818C675.076 100.619 674.847 99.3758 674.777 98.1189C674.633 95.5417 675.165 92.9717 676.32 90.663L677.587 88.1275C677.66 87.9826 677.697 87.8225 677.695 87.6605L677.565 75.2972C677.563 75.1132 677.79 75.0251 677.912 75.1625L687.349 85.7393C687.925 86.3841 688.721 86.7895 689.581 86.8754C690.763 86.9937 691.924 86.4947 692.651 85.555L696.435 80.6695C698.293 78.2706 699.632 75.5119 700.369 72.5683L701.774 66.9473C702.465 64.1867 702.814 61.3517 702.814 58.5061C702.814 54.6992 702.189 50.9182 700.965 47.3138L698.837 41.0516C697.605 37.4245 696.096 33.8975 694.323 30.5015L690.931 24.0027C689.789 21.8137 688.482 19.7141 687.023 17.7221L681.781 10.5645C678.02 5.42943 672.495 1.86432 666.266 0.553506C664.518 0.185496 662.736 0 660.949 0H656.784C654.451 0 652.123 0.230418 649.834 0.687902L648.906 0.873518C646.433 1.36785 644.038 2.18951 641.782 3.31682C639.312 4.55141 637.036 6.13992 635.024 8.03213L632.553 10.3572L626.077 18.4488L619.602 25.2457L610.212 32.69C606.582 35.5125 604.644 39.9931 605.073 44.5714Z" fill="#EE5483"/>
<path d="M695.883 104.72L692.892 99.0199C691.798 96.9344 690.338 95.0623 688.582 93.4928L688.138 93.0962C686.038 91.2187 683.51 89.8834 680.775 89.2067L680.427 89.1206C679.947 89.0019 679.454 89.26 679.279 89.722C678.652 91.3704 678.389 93.1349 678.508 94.8944L678.53 95.2176C678.604 96.3083 678.809 97.3863 679.139 98.4284L679.587 99.8397L681.476 105.138L682.735 108.118L683.403 109.422C684.399 111.367 684.718 113.588 684.31 115.734L683.776 118.164C683.503 119.411 683.327 120.679 683.251 121.954L683.193 122.926C683.098 124.525 683.224 126.13 683.568 127.694L683.68 128.208C683.889 129.16 684.206 130.085 684.625 130.965L686.829 135.601L688.088 137.919L688.809 139.737C689.373 141.161 689.663 142.679 689.663 144.21V145.514C689.663 146.629 689.567 147.743 689.377 148.842C689.148 150.166 688.784 151.462 688.289 152.71L687.459 154.806C686.62 156.79 685.928 158.833 685.387 160.918L685.254 161.429L684.412 165.637C684.135 167.022 683.995 168.431 683.995 169.844C683.995 171.513 684.19 173.176 684.576 174.799L684.939 176.329C685.149 177.209 685.254 178.11 685.254 179.015V179.309C685.254 180.178 685.037 181.034 684.622 181.797L683.995 182.952L682.42 185.932L681.161 188.912L679.272 195.534L679.028 196.689C678.352 199.886 677.958 203.146 677.851 206.413C677.749 209.524 677.908 212.648 678.327 215.733L680.216 224.342L682.106 230.633L684.31 236.262L685.578 240.041C685.991 241.27 686.55 242.445 687.244 243.54C687.805 244.425 688.452 245.254 689.175 246.014L689.348 246.196L690.485 247.152C690.776 247.397 691.086 247.619 691.412 247.815C692.534 248.489 693.818 248.845 695.126 248.845H695.645L698.794 248.514L701.049 248.139C703.53 247.727 706.041 247.52 708.555 247.52H716.427C718.942 247.741 721.433 248.174 723.874 248.816L723.985 248.845L728.078 250.169L730.524 250.721C731.828 251.015 733.161 251.163 734.497 251.163C735.464 251.163 736.43 251.085 737.384 250.931L740.043 250.501C741.717 250.061 743.336 249.432 744.868 248.626L746.341 247.852L751.064 244.871L753.147 243.265C754.904 241.911 756.532 240.397 758.011 238.745C759.881 236.655 761.502 234.356 762.84 231.892L763.345 230.964L764.385 228.776C765.369 226.707 766.18 224.559 766.808 222.355L767.753 217.719L768.383 212.753V209.772L767.753 204.143L767.371 201.734C767.206 200.693 766.963 199.665 766.644 198.66L766.574 198.439C766.102 196.949 765.814 195.408 765.715 193.849L765.671 193.167C765.59 191.881 765.684 190.591 765.95 189.33C766.102 188.611 766.31 187.904 766.571 187.217L766.809 186.593C767.228 185.491 767.731 184.424 768.315 183.401L768.383 183.283L769.279 181.869C769.52 181.488 769.799 181.131 770.11 180.804L770.396 180.503C770.523 180.37 770.663 180.249 770.814 180.143C771.281 179.816 771.837 179.64 772.408 179.64H772.544C773.115 179.64 773.671 179.816 774.138 180.143C774.289 180.249 774.429 180.37 774.556 180.504L774.934 180.9C775.393 181.383 775.792 181.92 776.122 182.498L776.569 183.283L777.041 184.15C777.548 185.084 778.384 185.795 779.387 186.147C779.607 186.224 779.834 186.283 780.064 186.323L780.19 186.345C781.109 186.506 782.056 186.358 782.882 185.924L783.143 185.787C783.377 185.663 783.59 185.503 783.773 185.311C784.202 184.859 784.441 184.26 784.441 183.636V182.047C784.441 181.548 784.383 181.051 784.268 180.565L784.251 180.493C783.963 179.284 783.36 178.172 782.504 177.272L781.608 176.329L779.718 174.342L779.375 173.981C778.766 173.341 778.086 172.773 777.348 172.288L776.897 171.992C776.262 171.574 775.57 171.251 774.842 171.032C774.108 170.812 773.339 170.7 772.573 170.7C771.277 170.7 769.987 171.015 768.84 171.618L768.068 172.024L766.543 173.093C765.674 173.702 764.894 174.428 764.224 175.251C763.64 175.967 763.144 176.751 762.747 177.585L761.77 179.64C760.518 182.494 759.705 185.52 759.358 188.617L759.251 189.574V193.179C759.251 195.188 759.409 197.193 759.723 199.177C760.038 201.16 760.196 203.166 760.196 205.174V208.779L759.881 214.408L759.401 217.603C759.093 219.656 758.483 221.652 757.592 223.528L757.5 223.721C756.781 225.232 755.87 226.645 754.79 227.923C754.196 228.625 753.553 229.284 752.866 229.896L751.637 230.989C750.418 232.074 749.101 233.043 747.702 233.883C746.169 234.805 744.546 235.567 742.858 236.159L741.687 236.569C741.293 236.707 740.921 236.316 741.078 235.93C741.437 235.049 741.865 234.198 742.358 233.384L743.822 230.964L746.656 225.335L748.86 219.375L749.235 217.865C750.241 213.81 750.749 209.647 750.749 205.468L749.805 196.196L749.401 193.083C749.042 190.312 748.348 187.595 747.335 184.992L746.921 183.926C746.326 182.398 745.574 180.935 744.676 179.562C743.276 177.421 741.538 175.521 739.53 173.937L737.978 172.714C737.699 172.494 737.566 172.137 737.632 171.788L737.798 170.915C738.245 168.569 738.469 166.17 738.469 163.783C738.469 162.003 738.343 160.213 738.092 158.452L738.016 157.925C737.689 155.631 737.119 153.379 736.316 151.207C735.653 149.415 734.835 147.686 733.871 146.038L732.801 144.21L732.106 143.165C731.144 141.72 730.825 139.939 731.227 138.25L731.562 137.263C732.383 134.847 732.801 132.312 732.801 129.761C732.801 128.14 732.632 126.523 732.297 124.938L731.542 121.363L731.273 120.517C729.997 116.491 727.881 112.782 725.065 109.635C724.581 109.095 724.369 108.364 724.489 107.648L724.671 106.567C725.052 104.296 725.183 101.991 725.061 99.6923L725.037 99.2351C724.965 97.8743 724.785 96.5214 724.499 95.1891L723.992 92.8276C723.169 88.9938 721.142 85.5237 718.206 82.9241C717.473 82.2752 716.323 82.5097 715.903 83.3936L714.53 86.2799C713.07 89.351 711.937 92.5673 711.151 95.8757L709.942 100.959C709.867 101.277 709.591 101.507 709.265 101.523C705.271 101.723 701.369 102.79 697.83 104.651L697.023 105.075C696.61 105.293 696.099 105.134 695.883 104.72Z" fill="#EE5483"/>
</svg>
